ISO-10303-21;
HEADER;
/* Generated by software containing ST-Developer
 * from STEP Tools, Inc. (www.steptools.com) 
 */

FILE_DESCRIPTION(
/* description */ (''),
/* implementation_level */ '2;1');

FILE_NAME(
/* name */ 'CSE_Seminar_Rechenmaschine_Zeiger.step',
/* time_stamp */ '2026-10-02T17:35:46+02:00',
/* author */ (''),
/* organization */ (''),
/* preprocessor_version */ 'ST-DEVELOPER v20.2',
/* originating_system */ 'Autodesk Translation Framework v15.15.0.0',
/* authorisation */ '');

FILE_SCHEMA (('AUTOMOTIVE_DESIGN { 1 0 10303 214 3 1 1 }'));
ENDSEC;

DATA;
#10=MECHANICAL_DESIGN_GEOMETRIC_PRESENTATION_REPRESENTATION('',(#13),#461);
#11=SHAPE_REPRESENTATION_RELATIONSHIP('SRR','None',#468,#12);
#12=ADVANCED_BREP_SHAPE_REPRESENTATION('',(#14),#460);
#13=STYLED_ITEM('',(#477),#14);
#14=MANIFOLD_SOLID_BREP('K\X\F6rper2',#269);
#15=FACE_BOUND('',#53,.T.);
#16=FACE_BOUND('',#55,.T.);
#17=PLANE('',#289);
#18=PLANE('',#290);
#19=PLANE('',#294);
#20=PLANE('',#295);
#21=PLANE('',#296);
#22=PLANE('',#300);
#23=PLANE('',#304);
#24=PLANE('',#305);
#25=PLANE('',#306);
#26=FACE_OUTER_BOUND('',#40,.T.);
#27=FACE_OUTER_BOUND('',#41,.T.);
#28=FACE_OUTER_BOUND('',#42,.T.);
#29=FACE_OUTER_BOUND('',#43,.T.);
#30=FACE_OUTER_BOUND('',#44,.T.);
#31=FACE_OUTER_BOUND('',#45,.T.);
#32=FACE_OUTER_BOUND('',#46,.T.);
#33=FACE_OUTER_BOUND('',#47,.T.);
#34=FACE_OUTER_BOUND('',#48,.T.);
#35=FACE_OUTER_BOUND('',#49,.T.);
#36=FACE_OUTER_BOUND('',#50,.T.);
#37=FACE_OUTER_BOUND('',#51,.T.);
#38=FACE_OUTER_BOUND('',#52,.T.);
#39=FACE_OUTER_BOUND('',#54,.T.);
#40=EDGE_LOOP('',(#178,#179,#180,#181));
#41=EDGE_LOOP('',(#182,#183,#184,#185));
#42=EDGE_LOOP('',(#186,#187,#188,#189));
#43=EDGE_LOOP('',(#190,#191,#192,#193));
#44=EDGE_LOOP('',(#194,#195,#196,#197));
#45=EDGE_LOOP('',(#198,#199,#200,#201));
#46=EDGE_LOOP('',(#202,#203,#204,#205));
#47=EDGE_LOOP('',(#206,#207,#208,#209));
#48=EDGE_LOOP('',(#210,#211,#212,#213));
#49=EDGE_LOOP('',(#214,#215,#216,#217));
#50=EDGE_LOOP('',(#218,#219,#220,#221));
#51=EDGE_LOOP('',(#222,#223,#224,#225));
#52=EDGE_LOOP('',(#226,#227,#228,#229,#230,#231,#232,#233,#234,#235,#236));
#53=EDGE_LOOP('',(#237));
#54=EDGE_LOOP('',(#238,#239,#240,#241,#242,#243,#244,#245,#246,#247,#248));
#55=EDGE_LOOP('',(#249));
#56=LINE('',#388,#82);
#57=LINE('',#395,#83);
#58=LINE('',#398,#84);
#59=LINE('',#401,#85);
#60=LINE('',#403,#86);
#61=LINE('',#404,#87);
#62=LINE('',#407,#88);
#63=LINE('',#409,#89);
#64=LINE('',#410,#90);
#65=LINE('',#416,#91);
#66=LINE('',#419,#92);
#67=LINE('',#421,#93);
#68=LINE('',#422,#94);
#69=LINE('',#425,#95);
#70=LINE('',#427,#96);
#71=LINE('',#428,#97);
#72=LINE('',#431,#98);
#73=LINE('',#433,#99);
#74=LINE('',#434,#100);
#75=LINE('',#440,#101);
#76=LINE('',#443,#102);
#77=LINE('',#445,#103);
#78=LINE('',#446,#104);
#79=LINE('',#452,#105);
#80=LINE('',#454,#106);
#81=LINE('',#455,#107);
#82=VECTOR('',#313,4.99999999999922);
#83=VECTOR('',#320,10.);
#84=VECTOR('',#323,10.);
#85=VECTOR('',#326,10.);
#86=VECTOR('',#327,10.);
#87=VECTOR('',#328,10.);
#88=VECTOR('',#331,10.);
#89=VECTOR('',#332,10.);
#90=VECTOR('',#333,10.);
#91=VECTOR('',#340,10.);
#92=VECTOR('',#343,10.);
#93=VECTOR('',#344,10.);
#94=VECTOR('',#345,10.);
#95=VECTOR('',#348,10.);
#96=VECTOR('',#349,10.);
#97=VECTOR('',#350,10.);
#98=VECTOR('',#353,10.);
#99=VECTOR('',#354,10.);
#100=VECTOR('',#355,10.);
#101=VECTOR('',#362,10.);
#102=VECTOR('',#365,10.);
#103=VECTOR('',#366,10.);
#104=VECTOR('',#367,10.);
#105=VECTOR('',#374,10.);
#106=VECTOR('',#377,10.);
#107=VECTOR('',#378,10.);
#108=CIRCLE('',#284,4.99999999999922);
#109=CIRCLE('',#285,4.99999999999922);
#110=CIRCLE('',#287,9.9999999999985);
#111=CIRCLE('',#288,9.9999999999985);
#112=CIRCLE('',#292,24.9999947101424);
#113=CIRCLE('',#293,24.9999947101424);
#114=CIRCLE('',#298,9.9999999999985);
#115=CIRCLE('',#299,9.9999999999985);
#116=CIRCLE('',#302,9.99999999999844);
#117=CIRCLE('',#303,9.99999999999844);
#118=VERTEX_POINT('',#385);
#119=VERTEX_POINT('',#387);
#120=VERTEX_POINT('',#391);
#121=VERTEX_POINT('',#392);
#122=VERTEX_POINT('',#394);
#123=VERTEX_POINT('',#396);
#124=VERTEX_POINT('',#400);
#125=VERTEX_POINT('',#402);
#126=VERTEX_POINT('',#406);
#127=VERTEX_POINT('',#408);
#128=VERTEX_POINT('',#412);
#129=VERTEX_POINT('',#414);
#130=VERTEX_POINT('',#418);
#131=VERTEX_POINT('',#420);
#132=VERTEX_POINT('',#424);
#133=VERTEX_POINT('',#426);
#134=VERTEX_POINT('',#430);
#135=VERTEX_POINT('',#432);
#136=VERTEX_POINT('',#436);
#137=VERTEX_POINT('',#438);
#138=VERTEX_POINT('',#442);
#139=VERTEX_POINT('',#444);
#140=VERTEX_POINT('',#448);
#141=VERTEX_POINT('',#450);
#142=EDGE_CURVE('',#118,#118,#108,.T.);
#143=EDGE_CURVE('',#118,#119,#56,.T.);
#144=EDGE_CURVE('',#119,#119,#109,.T.);
#145=EDGE_CURVE('',#120,#121,#110,.T.);
#146=EDGE_CURVE('',#120,#122,#57,.T.);
#147=EDGE_CURVE('',#123,#122,#111,.T.);
#148=EDGE_CURVE('',#121,#123,#58,.T.);
#149=EDGE_CURVE('',#124,#121,#59,.T.);
#150=EDGE_CURVE('',#125,#123,#60,.T.);
#151=EDGE_CURVE('',#124,#125,#61,.T.);
#152=EDGE_CURVE('',#126,#124,#62,.T.);
#153=EDGE_CURVE('',#127,#125,#63,.T.);
#154=EDGE_CURVE('',#126,#127,#64,.T.);
#155=EDGE_CURVE('',#128,#126,#112,.T.);
#156=EDGE_CURVE('',#129,#127,#113,.T.);
#157=EDGE_CURVE('',#128,#129,#65,.T.);
#158=EDGE_CURVE('',#130,#128,#66,.T.);
#159=EDGE_CURVE('',#131,#129,#67,.T.);
#160=EDGE_CURVE('',#130,#131,#68,.T.);
#161=EDGE_CURVE('',#132,#130,#69,.T.);
#162=EDGE_CURVE('',#133,#131,#70,.T.);
#163=EDGE_CURVE('',#132,#133,#71,.T.);
#164=EDGE_CURVE('',#134,#132,#72,.T.);
#165=EDGE_CURVE('',#135,#133,#73,.T.);
#166=EDGE_CURVE('',#134,#135,#74,.T.);
#167=EDGE_CURVE('',#134,#136,#114,.T.);
#168=EDGE_CURVE('',#137,#135,#115,.T.);
#169=EDGE_CURVE('',#136,#137,#75,.T.);
#170=EDGE_CURVE('',#138,#136,#76,.T.);
#171=EDGE_CURVE('',#139,#137,#77,.T.);
#172=EDGE_CURVE('',#138,#139,#78,.T.);
#173=EDGE_CURVE('',#140,#138,#116,.T.);
#174=EDGE_CURVE('',#141,#139,#117,.T.);
#175=EDGE_CURVE('',#140,#141,#79,.T.);
#176=EDGE_CURVE('',#120,#140,#80,.T.);
#177=EDGE_CURVE('',#122,#141,#81,.T.);
#178=ORIENTED_EDGE('',*,*,#142,.F.);
#179=ORIENTED_EDGE('',*,*,#143,.T.);
#180=ORIENTED_EDGE('',*,*,#144,.T.);
#181=ORIENTED_EDGE('',*,*,#143,.F.);
#182=ORIENTED_EDGE('',*,*,#145,.F.);
#183=ORIENTED_EDGE('',*,*,#146,.T.);
#184=ORIENTED_EDGE('',*,*,#147,.F.);
#185=ORIENTED_EDGE('',*,*,#148,.F.);
#186=ORIENTED_EDGE('',*,*,#149,.T.);
#187=ORIENTED_EDGE('',*,*,#148,.T.);
#188=ORIENTED_EDGE('',*,*,#150,.F.);
#189=ORIENTED_EDGE('',*,*,#151,.F.);
#190=ORIENTED_EDGE('',*,*,#152,.T.);
#191=ORIENTED_EDGE('',*,*,#151,.T.);
#192=ORIENTED_EDGE('',*,*,#153,.F.);
#193=ORIENTED_EDGE('',*,*,#154,.F.);
#194=ORIENTED_EDGE('',*,*,#155,.T.);
#195=ORIENTED_EDGE('',*,*,#154,.T.);
#196=ORIENTED_EDGE('',*,*,#156,.F.);
#197=ORIENTED_EDGE('',*,*,#157,.F.);
#198=ORIENTED_EDGE('',*,*,#158,.T.);
#199=ORIENTED_EDGE('',*,*,#157,.T.);
#200=ORIENTED_EDGE('',*,*,#159,.F.);
#201=ORIENTED_EDGE('',*,*,#160,.F.);
#202=ORIENTED_EDGE('',*,*,#161,.T.);
#203=ORIENTED_EDGE('',*,*,#160,.T.);
#204=ORIENTED_EDGE('',*,*,#162,.F.);
#205=ORIENTED_EDGE('',*,*,#163,.F.);
#206=ORIENTED_EDGE('',*,*,#164,.T.);
#207=ORIENTED_EDGE('',*,*,#163,.T.);
#208=ORIENTED_EDGE('',*,*,#165,.F.);
#209=ORIENTED_EDGE('',*,*,#166,.F.);
#210=ORIENTED_EDGE('',*,*,#167,.F.);
#211=ORIENTED_EDGE('',*,*,#166,.T.);
#212=ORIENTED_EDGE('',*,*,#168,.F.);
#213=ORIENTED_EDGE('',*,*,#169,.F.);
#214=ORIENTED_EDGE('',*,*,#170,.T.);
#215=ORIENTED_EDGE('',*,*,#169,.T.);
#216=ORIENTED_EDGE('',*,*,#171,.F.);
#217=ORIENTED_EDGE('',*,*,#172,.F.);
#218=ORIENTED_EDGE('',*,*,#173,.T.);
#219=ORIENTED_EDGE('',*,*,#172,.T.);
#220=ORIENTED_EDGE('',*,*,#174,.F.);
#221=ORIENTED_EDGE('',*,*,#175,.F.);
#222=ORIENTED_EDGE('',*,*,#176,.T.);
#223=ORIENTED_EDGE('',*,*,#175,.T.);
#224=ORIENTED_EDGE('',*,*,#177,.F.);
#225=ORIENTED_EDGE('',*,*,#146,.F.);
#226=ORIENTED_EDGE('',*,*,#177,.T.);
#227=ORIENTED_EDGE('',*,*,#174,.T.);
#228=ORIENTED_EDGE('',*,*,#171,.T.);
#229=ORIENTED_EDGE('',*,*,#168,.T.);
#230=ORIENTED_EDGE('',*,*,#165,.T.);
#231=ORIENTED_EDGE('',*,*,#162,.T.);
#232=ORIENTED_EDGE('',*,*,#159,.T.);
#233=ORIENTED_EDGE('',*,*,#156,.T.);
#234=ORIENTED_EDGE('',*,*,#153,.T.);
#235=ORIENTED_EDGE('',*,*,#150,.T.);
#236=ORIENTED_EDGE('',*,*,#147,.T.);
#237=ORIENTED_EDGE('',*,*,#142,.T.);
#238=ORIENTED_EDGE('',*,*,#176,.F.);
#239=ORIENTED_EDGE('',*,*,#145,.T.);
#240=ORIENTED_EDGE('',*,*,#149,.F.);
#241=ORIENTED_EDGE('',*,*,#152,.F.);
#242=ORIENTED_EDGE('',*,*,#155,.F.);
#243=ORIENTED_EDGE('',*,*,#158,.F.);
#244=ORIENTED_EDGE('',*,*,#161,.F.);
#245=ORIENTED_EDGE('',*,*,#164,.F.);
#246=ORIENTED_EDGE('',*,*,#167,.T.);
#247=ORIENTED_EDGE('',*,*,#170,.F.);
#248=ORIENTED_EDGE('',*,*,#173,.F.);
#249=ORIENTED_EDGE('',*,*,#144,.F.);
#250=CYLINDRICAL_SURFACE('',#283,4.99999999999922);
#251=CYLINDRICAL_SURFACE('',#286,9.9999999999985);
#252=CYLINDRICAL_SURFACE('',#291,24.9999947101424);
#253=CYLINDRICAL_SURFACE('',#297,9.9999999999985);
#254=CYLINDRICAL_SURFACE('',#301,9.99999999999844);
#255=ADVANCED_FACE('',(#26),#250,.F.);
#256=ADVANCED_FACE('',(#27),#251,.F.);
#257=ADVANCED_FACE('',(#28),#17,.T.);
#258=ADVANCED_FACE('',(#29),#18,.T.);
#259=ADVANCED_FACE('',(#30),#252,.T.);
#260=ADVANCED_FACE('',(#31),#19,.T.);
#261=ADVANCED_FACE('',(#32),#20,.T.);
#262=ADVANCED_FACE('',(#33),#21,.T.);
#263=ADVANCED_FACE('',(#34),#253,.F.);
#264=ADVANCED_FACE('',(#35),#22,.T.);
#265=ADVANCED_FACE('',(#36),#254,.T.);
#266=ADVANCED_FACE('',(#37),#23,.T.);
#267=ADVANCED_FACE('',(#38,#15),#24,.T.);
#268=ADVANCED_FACE('',(#39,#16),#25,.F.);
#269=CLOSED_SHELL('',(#255,#256,#257,#258,#259,#260,#261,#262,#263,#264,
#265,#266,#267,#268));
#270=DERIVED_UNIT_ELEMENT(#272,1.);
#271=DERIVED_UNIT_ELEMENT(#463,-3.);
#272=(
MASS_UNIT()
NAMED_UNIT(*)
SI_UNIT(.KILO.,.GRAM.)
);
#273=DERIVED_UNIT((#270,#271));
#274=MEASURE_REPRESENTATION_ITEM('density measure',
POSITIVE_RATIO_MEASURE(7850.),#273);
#275=PROPERTY_DEFINITION_REPRESENTATION(#280,#277);
#276=PROPERTY_DEFINITION_REPRESENTATION(#281,#278);
#277=REPRESENTATION('material name',(#279),#460);
#278=REPRESENTATION('density',(#274),#460);
#279=DESCRIPTIVE_REPRESENTATION_ITEM('Stahl','Stahl');
#280=PROPERTY_DEFINITION('material property','material name',#470);
#281=PROPERTY_DEFINITION('material property','density of part',#470);
#282=AXIS2_PLACEMENT_3D('',#383,#307,#308);
#283=AXIS2_PLACEMENT_3D('',#384,#309,#310);
#284=AXIS2_PLACEMENT_3D('',#386,#311,#312);
#285=AXIS2_PLACEMENT_3D('',#389,#314,#315);
#286=AXIS2_PLACEMENT_3D('',#390,#316,#317);
#287=AXIS2_PLACEMENT_3D('',#393,#318,#319);
#288=AXIS2_PLACEMENT_3D('',#397,#321,#322);
#289=AXIS2_PLACEMENT_3D('',#399,#324,#325);
#290=AXIS2_PLACEMENT_3D('',#405,#329,#330);
#291=AXIS2_PLACEMENT_3D('',#411,#334,#335);
#292=AXIS2_PLACEMENT_3D('',#413,#336,#337);
#293=AXIS2_PLACEMENT_3D('',#415,#338,#339);
#294=AXIS2_PLACEMENT_3D('',#417,#341,#342);
#295=AXIS2_PLACEMENT_3D('',#423,#346,#347);
#296=AXIS2_PLACEMENT_3D('',#429,#351,#352);
#297=AXIS2_PLACEMENT_3D('',#435,#356,#357);
#298=AXIS2_PLACEMENT_3D('',#437,#358,#359);
#299=AXIS2_PLACEMENT_3D('',#439,#360,#361);
#300=AXIS2_PLACEMENT_3D('',#441,#363,#364);
#301=AXIS2_PLACEMENT_3D('',#447,#368,#369);
#302=AXIS2_PLACEMENT_3D('',#449,#370,#371);
#303=AXIS2_PLACEMENT_3D('',#451,#372,#373);
#304=AXIS2_PLACEMENT_3D('',#453,#375,#376);
#305=AXIS2_PLACEMENT_3D('',#456,#379,#380);
#306=AXIS2_PLACEMENT_3D('',#457,#381,#382);
#307=DIRECTION('axis',(0.,0.,1.));
#308=DIRECTION('refdir',(1.,0.,0.));
#309=DIRECTION('center_axis',(0.,0.,1.));
#310=DIRECTION('ref_axis',(1.,7.90541460474336E-9,0.));
#311=DIRECTION('center_axis',(-3.46513856101093E-30,-2.94789870728121E-30,
-1.));
#312=DIRECTION('ref_axis',(1.,7.90541460474336E-9,-3.46513858431529E-30));
#313=DIRECTION('',(0.,0.,-1.));
#314=DIRECTION('center_axis',(-3.46513856101093E-30,-2.94789870728121E-30,
-1.));
#315=DIRECTION('ref_axis',(1.,7.90541460474336E-9,-3.46513858431529E-30));
#316=DIRECTION('center_axis',(0.,0.,1.));
#317=DIRECTION('ref_axis',(0.994251820821299,-0.107066880002786,0.));
#318=DIRECTION('center_axis',(3.46513856101093E-30,2.94789870728122E-30,
1.));
#319=DIRECTION('ref_axis',(0.994251820821299,-0.107066880002786,-3.12959800653037E-30));
#320=DIRECTION('',(0.,0.,1.));
#321=DIRECTION('center_axis',(-3.46513856101093E-30,-2.94789870728122E-30,
-1.));
#322=DIRECTION('ref_axis',(0.994251820821299,-0.107066880002786,-3.12959800653037E-30));
#323=DIRECTION('',(0.,0.,1.));
#324=DIRECTION('center_axis',(-0.107066880002769,-0.994251820821301,0.));
#325=DIRECTION('ref_axis',(0.994251820821301,-0.107066880002769,-3.1295980065305E-30));
#326=DIRECTION('',(0.994251820821301,-0.107066880002769,-3.1295980065305E-30));
#327=DIRECTION('',(0.994251820821301,-0.107066880002769,-3.1295980065305E-30));
#328=DIRECTION('',(0.,0.,1.));
#329=DIRECTION('center_axis',(-0.994251822432725,0.107066865038649,0.));
#330=DIRECTION('ref_axis',(-0.107066865038649,-0.994251822432725,3.3019551847134E-30));
#331=DIRECTION('',(-0.107066865038649,-0.994251822432725,3.3019551847134E-30));
#332=DIRECTION('',(-0.107066865038649,-0.994251822432725,3.3019551847134E-30));
#333=DIRECTION('',(0.,0.,1.));
#334=DIRECTION('center_axis',(0.,0.,1.));
#335=DIRECTION('ref_axis',(0.994251820821237,-0.107066880003364,0.));
#336=DIRECTION('center_axis',(3.46513856101093E-30,2.94789870728122E-30,
1.));
#337=DIRECTION('ref_axis',(0.994251820821237,-0.107066880003364,-3.12959800652845E-30));
#338=DIRECTION('center_axis',(3.46513856101093E-30,2.94789870728122E-30,
1.));
#339=DIRECTION('ref_axis',(0.994251820821237,-0.107066880003364,-3.12959800652845E-30));
#340=DIRECTION('',(0.,0.,1.));
#341=DIRECTION('center_axis',(0.107066883033297,0.994251820494956,0.));
#342=DIRECTION('ref_axis',(-0.994251820494956,0.107066883033297,3.12959801209839E-30));
#343=DIRECTION('',(-0.994251820494956,0.107066883033297,3.12959801209839E-30));
#344=DIRECTION('',(-0.994251820494956,0.107066883033297,3.12959801209839E-30));
#345=DIRECTION('',(0.,0.,1.));
#346=DIRECTION('center_axis',(0.9942518208213,-0.107066880002783,0.));
#347=DIRECTION('ref_axis',(0.107066880002783,0.9942518208213,-3.30195523181588E-30));
#348=DIRECTION('',(0.107066880002783,0.9942518208213,-3.30195523181588E-30));
#349=DIRECTION('',(0.107066880002783,0.9942518208213,-3.30195523181588E-30));
#350=DIRECTION('',(0.,0.,1.));
#351=DIRECTION('center_axis',(-0.10706688000279,-0.994251820821299,0.));
#352=DIRECTION('ref_axis',(0.994251820821299,-0.10706688000279,-3.12959800653036E-30));
#353=DIRECTION('',(0.994251820821299,-0.10706688000279,-3.12959800653036E-30));
#354=DIRECTION('',(0.994251820821299,-0.10706688000279,-3.12959800653036E-30));
#355=DIRECTION('',(0.,0.,1.));
#356=DIRECTION('center_axis',(0.,0.,1.));
#357=DIRECTION('ref_axis',(0.107066880002779,0.9942518208213,0.));
#358=DIRECTION('center_axis',(3.46513856101093E-30,2.94789870728122E-30,
1.));
#359=DIRECTION('ref_axis',(0.107066880002779,0.9942518208213,-3.30195523181586E-30));
#360=DIRECTION('center_axis',(-3.46513856101093E-30,-2.94789870728122E-30,
-1.));
#361=DIRECTION('ref_axis',(0.107066880002779,0.9942518208213,-3.30195523181586E-30));
#362=DIRECTION('',(0.,0.,1.));
#363=DIRECTION('center_axis',(0.994251820821298,-0.107066880002795,0.));
#364=DIRECTION('ref_axis',(0.107066880002795,0.994251820821298,-3.30096761851599E-30));
#365=DIRECTION('',(0.107066880002795,0.994251820821298,-3.30096761851599E-30));
#366=DIRECTION('',(0.107066880002795,0.994251820821298,-3.30096761851599E-30));
#367=DIRECTION('',(0.,0.,1.));
#368=DIRECTION('center_axis',(0.,0.,1.));
#369=DIRECTION('ref_axis',(-0.994251820821299,0.10706688000279,0.));
#370=DIRECTION('center_axis',(3.47465810091534E-30,2.79951493238793E-30,
1.));
#371=DIRECTION('ref_axis',(-0.994251820821299,0.10706688000279,3.15494981423455E-30));
#372=DIRECTION('center_axis',(3.47465810091534E-30,2.79951493238793E-30,
1.));
#373=DIRECTION('ref_axis',(-0.994251820821299,0.10706688000279,3.15494981423455E-30));
#374=DIRECTION('',(0.,0.,1.));
#375=DIRECTION('center_axis',(-0.9942518208213,0.107066880002781,0.));
#376=DIRECTION('ref_axis',(-0.107066880002781,-0.9942518208213,3.35265884722479E-30));
#377=DIRECTION('',(-0.107066880002781,-0.9942518208213,3.35265884722479E-30));
#378=DIRECTION('',(-0.107066880002781,-0.9942518208213,3.35265884722479E-30));
#379=DIRECTION('center_axis',(3.49083561014278E-30,2.94513149799056E-30,
1.));
#380=DIRECTION('ref_axis',(1.,7.90541460474336E-9,-3.49083563342527E-30));
#381=DIRECTION('center_axis',(3.49083561014278E-30,2.94513149799056E-30,
1.));
#382=DIRECTION('ref_axis',(1.,7.90541460474336E-9,-3.49083563342527E-30));
#383=CARTESIAN_POINT('',(0.,0.,0.));
#384=CARTESIAN_POINT('Origin',(-380.000000000054,2.0301537800544E-11,20.));
#385=CARTESIAN_POINT('',(-385.000000000053,-3.95067720982335E-8,26.));
#386=CARTESIAN_POINT('Origin',(-380.000000000054,2.0301537800544E-11,26.));
#387=CARTESIAN_POINT('',(-385.000000000053,-3.95067720982335E-8,20.));
#388=CARTESIAN_POINT('',(-385.000000000053,-3.95067720982335E-8,20.));
#389=CARTESIAN_POINT('Origin',(-380.000000000054,2.0301537800544E-11,20.));
#390=CARTESIAN_POINT('Origin',(-427.722470356478,-256.364130952575,20.));
#391=CARTESIAN_POINT('',(-417.779952148266,-257.434799752603,20.));
#392=CARTESIAN_POINT('',(-426.65180155645,-246.421612744364,20.));
#393=CARTESIAN_POINT('Origin',(-427.722470356478,-256.364130952575,20.));
#394=CARTESIAN_POINT('',(-417.779952148266,-257.434799752603,26.));
#395=CARTESIAN_POINT('',(-417.779952148266,-257.434799752603,20.));
#396=CARTESIAN_POINT('',(-426.65180155645,-246.421612744364,26.));
#397=CARTESIAN_POINT('Origin',(-427.722470356478,-256.364130952575,26.));
#398=CARTESIAN_POINT('',(-426.65180155645,-246.421612744364,20.));
#399=CARTESIAN_POINT('Origin',(-431.623006520738,-245.886284174444,20.));
#400=CARTESIAN_POINT('',(-431.623006520738,-245.886284174444,20.));
#401=CARTESIAN_POINT('',(-431.623006520738,-245.886284174444,20.));
#402=CARTESIAN_POINT('',(-431.623006520738,-245.886284174444,26.));
#403=CARTESIAN_POINT('',(-431.623006520738,-245.886284174444,26.));
#404=CARTESIAN_POINT('',(-431.623006520738,-245.886284174444,20.));
#405=CARTESIAN_POINT('Origin',(-404.856290261077,2.67667143372961,20.));
#406=CARTESIAN_POINT('',(-404.856290261077,2.67667143372961,20.));
#407=CARTESIAN_POINT('',(-404.856290261077,2.67667143372961,20.));
#408=CARTESIAN_POINT('',(-404.856290261077,2.67667143372961,26.));
#409=CARTESIAN_POINT('',(-404.856290261077,2.67667143372961,26.));
#410=CARTESIAN_POINT('',(-404.856290261077,2.67667143372961,20.));
#411=CARTESIAN_POINT('Origin',(-380.000000000054,2.0301537800544E-11,20.));
#412=CARTESIAN_POINT('',(-355.143709738974,-2.67667143369525,20.));
#413=CARTESIAN_POINT('Origin',(-380.000000000054,2.0301537800544E-11,20.));
#414=CARTESIAN_POINT('',(-355.143709738974,-2.67667143369525,26.));
#415=CARTESIAN_POINT('Origin',(-380.000000000054,2.0301537800544E-11,26.));
#416=CARTESIAN_POINT('',(-355.143709738974,-2.67667143369525,20.));
#417=CARTESIAN_POINT('Origin',(-355.143695478989,-2.6766729692943,20.));
#418=CARTESIAN_POINT('',(-355.143695478989,-2.6766729692943,20.));
#419=CARTESIAN_POINT('',(-355.143695478989,-2.6766729692943,20.));
#420=CARTESIAN_POINT('',(-355.143695478989,-2.6766729692943,26.));
#421=CARTESIAN_POINT('',(-355.143695478989,-2.6766729692943,26.));
#422=CARTESIAN_POINT('',(-355.143695478989,-2.6766729692943,20.));
#423=CARTESIAN_POINT('Origin',(-381.91041547968,-251.239628174582,20.));
#424=CARTESIAN_POINT('',(-381.91041547968,-251.239628174582,20.));
#425=CARTESIAN_POINT('',(-381.91041547968,-251.239628174582,20.));
#426=CARTESIAN_POINT('',(-381.91041547968,-251.239628174582,26.));
#427=CARTESIAN_POINT('',(-381.91041547968,-251.239628174582,26.));
#428=CARTESIAN_POINT('',(-381.91041547968,-251.239628174582,20.));
#429=CARTESIAN_POINT('Origin',(-386.881728427294,-250.704287976383,20.));
#430=CARTESIAN_POINT('',(-386.881728427294,-250.704287976383,20.));
#431=CARTESIAN_POINT('',(-386.881728427294,-250.704287976383,20.));
#432=CARTESIAN_POINT('',(-386.881728427294,-250.704287976383,26.));
#433=CARTESIAN_POINT('',(-386.881728427294,-250.704287976383,26.));
#434=CARTESIAN_POINT('',(-386.881728427294,-250.704287976383,20.));
#435=CARTESIAN_POINT('Origin',(-387.952397227321,-260.646806184594,20.));
#436=CARTESIAN_POINT('',(-397.894915435533,-259.576137384566,20.));
#437=CARTESIAN_POINT('Origin',(-387.952397227321,-260.646806184594,20.));
#438=CARTESIAN_POINT('',(-397.894915435533,-259.576137384566,26.));
#439=CARTESIAN_POINT('Origin',(-387.952397227321,-260.646806184594,26.));
#440=CARTESIAN_POINT('',(-397.894915435533,-259.576137384566,20.));
#441=CARTESIAN_POINT('Origin',(-398.430249835541,-264.54739648862,20.));
#442=CARTESIAN_POINT('',(-398.430249835541,-264.54739648862,20.));
#443=CARTESIAN_POINT('',(-398.430249835541,-264.54739648862,20.));
#444=CARTESIAN_POINT('',(-398.430249835541,-264.54739648862,26.));
#445=CARTESIAN_POINT('',(-398.430249835541,-264.54739648862,26.));
#446=CARTESIAN_POINT('',(-398.430249835541,-264.54739648862,20.));
#447=CARTESIAN_POINT('Origin',(-408.372768340063,-263.476727656684,20.));
#448=CARTESIAN_POINT('',(-418.315286548274,-262.406058856657,20.));
#449=CARTESIAN_POINT('Origin',(-408.372768340063,-263.476727656684,20.));
#450=CARTESIAN_POINT('',(-418.315286548274,-262.406058856657,26.));
#451=CARTESIAN_POINT('Origin',(-408.372768340063,-263.476727656684,26.));
#452=CARTESIAN_POINT('',(-418.315286548274,-262.406058856657,20.));
#453=CARTESIAN_POINT('Origin',(-417.779952148266,-257.434799752603,20.));
#454=CARTESIAN_POINT('',(-417.779952148266,-257.434799752603,20.));
#455=CARTESIAN_POINT('',(-417.779952148266,-257.434799752603,26.));
#456=CARTESIAN_POINT('Origin',(-393.311505895086,-124.238366482298,26.));
#457=CARTESIAN_POINT('Origin',(-393.311505895086,-124.238366482298,20.));
#458=UNCERTAINTY_MEASURE_WITH_UNIT(LENGTH_MEASURE(0.01),#462,
'DISTANCE_ACCURACY_VALUE',
'Maximum model space distance between geometric entities at asserted c
onnectivities');
#459=UNCERTAINTY_MEASURE_WITH_UNIT(LENGTH_MEASURE(0.01),#462,
'DISTANCE_ACCURACY_VALUE',
'Maximum model space distance between geometric entities at asserted c
onnectivities');
#460=(
GEOMETRIC_REPRESENTATION_CONTEXT(3)
GLOBAL_UNCERTAINTY_ASSIGNED_CONTEXT((#458))
GLOBAL_UNIT_ASSIGNED_CONTEXT((#462,#464,#465))
REPRESENTATION_CONTEXT('','3D')
);
#461=(
GEOMETRIC_REPRESENTATION_CONTEXT(3)
GLOBAL_UNCERTAINTY_ASSIGNED_CONTEXT((#459))
GLOBAL_UNIT_ASSIGNED_CONTEXT((#462,#464,#465))
REPRESENTATION_CONTEXT('','3D')
);
#462=(
LENGTH_UNIT()
NAMED_UNIT(*)
SI_UNIT(.MILLI.,.METRE.)
);
#463=(
LENGTH_UNIT()
NAMED_UNIT(*)
SI_UNIT($,.METRE.)
);
#464=(
NAMED_UNIT(*)
PLANE_ANGLE_UNIT()
SI_UNIT($,.RADIAN.)
);
#465=(
NAMED_UNIT(*)
SI_UNIT($,.STERADIAN.)
SOLID_ANGLE_UNIT()
);
#466=SHAPE_DEFINITION_REPRESENTATION(#467,#468);
#467=PRODUCT_DEFINITION_SHAPE('',$,#470);
#468=SHAPE_REPRESENTATION('',(#282),#460);
#469=PRODUCT_DEFINITION_CONTEXT('part definition',#474,'design');
#470=PRODUCT_DEFINITION('2026-06-20-18-14-36-644',
'CSE_Seminar_Rechenmaschine_Zeiger',#471,#469);
#471=PRODUCT_DEFINITION_FORMATION('',$,#476);
#472=PRODUCT_RELATED_PRODUCT_CATEGORY(
'CSE_Seminar_Rechenmaschine_Zeiger','CSE_Seminar_Rechenmaschine_Zeiger',
(#476));
#473=APPLICATION_PROTOCOL_DEFINITION('international standard',
'automotive_design',2009,#474);
#474=APPLICATION_CONTEXT(
'Core Data for Automotive Mechanical Design Process');
#475=PRODUCT_CONTEXT('part definition',#474,'mechanical');
#476=PRODUCT('2026-06-20-18-14-36-644',
'CSE_Seminar_Rechenmaschine_Zeiger',$,(#475));
#477=PRESENTATION_STYLE_ASSIGNMENT((#478));
#478=SURFACE_STYLE_USAGE(.BOTH.,#479);
#479=SURFACE_SIDE_STYLE('',(#480));
#480=SURFACE_STYLE_FILL_AREA(#481);
#481=FILL_AREA_STYLE('Stahl - satiniert',(#482));
#482=FILL_AREA_STYLE_COLOUR('Stahl - satiniert',#483);
#483=COLOUR_RGB('Stahl - satiniert',0.627450980392157,0.627450980392157,
0.627450980392157);
ENDSEC;
END-ISO-10303-21;
